<svg width="196" height="48" viewBox="0 0 196 48" fill="none" xmlns="http://www.w3.org/2000/svg">
<path d="M23.8239 0C24.0755 0.248036 23.9006 1.20442 24.0057 1.59006C25.6853 7.75434 33.892 5.30116 37.3096 9.97479C38.6733 11.8398 39.5615 13.1079 39.7512 15.4249C40.2478 21.489 39.9616 27.6587 39.2411 33.6885C38.8517 36.9229 38.1162 39.5988 35.5849 41.8262C34.5943 42.6936 33.4479 43.3594 32.2081 43.7869C27.4849 45.3962 18.0709 45.056 13.0416 44.7157C11.0399 44.4459 8.64583 44.2231 6.81929 43.3996C4.41225 42.334 2.53666 40.3237 1.62339 37.8303C-0.119359 33.176 -0.807103 17.1837 1.33611 12.4354C2.62187 9.587 5.17941 7.53592 8.21258 6.92026C12.3984 6.0733 14.0326 6.25568 16.0066 1.74598C17.1488 3.81723 17.4684 4.57751 19.4572 5.83714C19.9855 2.2502 20.6364 1.51997 23.8239 0Z" fill="#1B1919"/>
<path d="M20.0605 17.16C23.0453 15.3395 25.7836 14.6713 29.2908 15.1786C37.0887 16.3065 36.3908 24.4386 35.4224 29.9397C34.7264 26.3921 33.8684 21.91 29.8647 20.4045C27.8575 19.624 25.3359 19.9811 24.0635 21.7732C21.6564 25.1633 24.3744 28.4059 28.0333 29.1174C29.8188 29.4647 32.2046 30.2603 32.9372 31.9189C34.3294 35.0706 32.0569 37.0824 29.3332 38.3238C25.1447 40.1724 19.5215 40.3365 15.0311 39.5668C11.7742 39.0364 5.96314 37.1187 6.80551 33.0029C7.53714 28.9032 12.4713 29.8223 14.9163 27.9197C20.2205 23.7922 13.997 17.0877 8.6281 21.3008C6.08158 23.299 5.15816 26.6213 4.74832 29.6243C3.51195 26.3833 3.71701 20.4173 6.04691 17.64C7.58723 15.8041 9.26812 15.367 11.5541 15.1029C14.7312 14.6729 17.4046 15.6354 20.0605 17.16Z" fill="#F6F5F5"/>
<path d="M18.5105 26.0854C19.5619 25.9776 21.2386 25.8696 22.163 26.4497C23.0255 27.8874 20.5616 28.8903 20.5053 30.6783C21.5789 33.1154 24.1855 30.5293 25.3996 30.1198C25.8618 30.2121 25.7051 30.1094 26 30.4886L25.9484 30.7717C24.5864 32.4768 23.1405 32.6861 21.2216 32.9101C19.6443 33.2566 13.9845 32.6413 14 30.3668L14.2052 30.2018C15.2142 30.2439 17.7137 32.2823 18.7509 31.507C21.0514 29.7875 17.2466 28.8479 17.5924 26.7559C17.8093 26.3302 18.1078 26.2603 18.5105 26.0854Z" fill="#1B1919"/>
<path d="M26.4536 22.0155C27.7369 21.927 28.3925 22.1756 28.8518 23.8595C28.978 24.3226 29.0864 24.9859 28.8999 25.428C28.4404 24.6923 28.1707 24.3103 27.6385 23.6538C26.3186 23.1576 25.6675 24.8544 25 26C25.2773 24.2172 25.3143 23.2121 26.4536 22.0155Z" fill="#F6F5F5"/>
<path d="M12.2274 22.0333C14.6576 21.7132 14.7023 23.7498 15 26C14.4161 24.9352 14.2313 24.597 13.4635 23.6953C12.3326 23.4172 12.0001 24.1969 11.217 25.0884L11.0163 25.0782C10.8948 23.7125 11.4682 22.9269 12.2274 22.0333Z" fill="#F6F5F5"/>
<path d="M155.525 20.0521C158.395 19.8362 160.101 20.2579 162.416 21.9411L162.414 20.4199L167.971 20.4213L167.974 33.1011C167.975 35.3523 168.11 38.1709 167.753 40.3171C166.354 48.7105 154.367 49.9474 148.572 45.3867C148.094 45.0107 147.442 44.4569 147.343 43.8266C147.313 43.6284 147.633 43.3834 147.782 43.2299C148.749 42.3502 149.703 41.4566 150.644 40.5493L150.703 40.6086C153.265 43.1704 157.964 44.5073 161.116 41.754C162.434 40.6045 162.353 38.7564 162.329 37.133C161.02 38.0844 159.706 38.6774 158.076 38.9237C155.516 39.3228 152.9 38.6976 150.812 37.1874C148.781 35.6844 147.445 33.4426 147.106 30.9636C146.34 25.3954 149.786 20.7297 155.525 20.0521Z" fill="#1B1919"/>
<path d="M157.069 25.0795C159.769 24.6189 162.376 26.2061 162.905 28.6331C163.435 31.06 161.689 33.4166 158.996 33.9091C156.277 34.406 153.628 32.8164 153.095 30.3668C152.56 27.9172 154.343 25.5445 157.069 25.0795Z" fill="#FEFEFE"/>
<path d="M67.5572 20.0756C70.3521 19.7507 72.4816 20.4704 74.5843 22.2851L74.5976 20.4491L80 20.4472L79.9956 39.6221L74.5932 39.6204C74.6131 39.1485 74.6877 38.4856 74.5314 38.0665L74.312 38.034L73.7781 38.4386C70.5079 40.6542 66.0324 40.471 62.8642 38.149C60.8208 36.6288 59.4752 34.3561 59.1284 31.8399C58.3058 26.0562 61.4734 20.8434 67.5572 20.0756Z" fill="#1B1919"/>
<path d="M68.4744 25.0885C71.4334 24.5782 74.2936 26.3266 74.8901 29.0103C75.4864 31.6941 73.5973 34.3147 70.6525 34.8888C68.7161 35.2661 66.7062 34.6681 65.3902 33.3229C64.0741 31.9776 63.6553 30.0931 64.2936 28.3889C64.9319 26.6846 66.5288 25.424 68.4744 25.0885Z" fill="#FEFEFE"/>
<path d="M134.654 20.0613C134.847 20.0405 135.041 20.026 135.236 20.0179C136.017 19.9864 136.784 19.9922 137.575 20.07C147.259 21.0214 150.633 33.0547 142.176 38.382C140.99 39.1294 139.094 39.8497 137.659 39.8958C126.385 41.2867 120.022 28.4116 129.863 21.6267C131.157 20.7345 133.08 20.23 134.654 20.0613Z" fill="#1B1919"/>
<path d="M135.403 25.0362C138.126 24.7088 140.605 26.6366 140.958 29.3567C141.311 32.0766 139.406 34.5732 136.689 34.9516C133.936 35.335 131.399 33.3996 131.042 30.6433C130.684 27.887 132.643 25.3682 135.403 25.0362Z" fill="#FEFEFE"/>
<path d="M105.078 20.0683C109.793 19.5793 114.123 21.7112 115.618 26.5935C116.154 28.3424 116.032 29.9892 115.82 31.7797L101.35 31.779C103.054 36.4292 108.218 36.6083 111.541 33.606L112.395 34.4252L114.723 36.6768C110.725 40.6197 104.081 41.1896 99.6785 37.6556C97.6378 36.0395 96.3295 33.6444 96.054 31.0216C95.7882 28.4654 96.5109 25.9044 98.0684 23.8853C99.828 21.6266 102.308 20.3811 105.078 20.0683Z" fill="#1B1919"/>
<path d="M104.709 24.0609C108.001 23.8117 109.947 24.1799 111 27.9955L107.609 28L101 27.9816C101.082 27.7706 101.166 27.5606 101.252 27.3515C102.037 25.446 102.995 24.7716 104.709 24.0609Z" fill="#FEFEFE"/>
<path d="M186.62 20.0598C186.849 20.0343 187.08 20.0181 187.311 20.0112C190.933 19.8897 193.336 20.7474 195.944 23.1621L192.373 26.5401C190.131 24.6446 186.873 24.0075 184.486 26.036C183.413 26.9593 182.769 28.2764 182.703 29.6812C182.403 35.1802 188.734 36.666 192.415 33.3186L193.863 34.7463C194.53 35.4142 195.296 36.0785 196 36.7143C194.31 38.47 192.058 39.5936 189.626 39.8946C186.506 40.2845 183.274 39.6046 180.777 37.6613C178.682 36.0439 177.341 33.6563 177.058 31.0441C176.776 28.4845 177.527 25.9181 179.151 23.9045C181.052 21.5729 183.664 20.3721 186.62 20.0598Z" fill="#1B1919"/>
<path d="M85.6839 12L91.1927 12.0012L91.1682 20.2573L96 20.2609L95.9928 24.9756L91.1682 24.9683L91.1838 39.7614L91.0218 39.9287C90.2271 40.0472 86.6685 39.983 85.6743 39.9798L85.674 24.9801L81.0027 24.9664L81 20.258L85.6714 20.2625L85.6839 12Z" fill="#1B1919"/>
<path d="M118.277 11L122.953 11.0144C122.949 13.6583 123.131 39.4631 122.802 39.9993L118.05 40L118.047 20.8113C118.047 18.1689 117.923 13.6765 118.078 11.1518L118.277 11Z" fill="#1B1919"/>
<path d="M51.0142 11.0006L57 11L56.9972 40L51 39.9984L51.0142 11.0006Z" fill="#1B1919"/>
<path d="M170.005 20L175 20.0006L174.999 40L170 39.9972L170.005 20Z" fill="#1B1919"/>
<path d="M172.234 11.0997C173.281 10.8228 174.396 11.1324 175.151 11.9096C175.907 12.6869 176.184 13.8109 175.877 14.8501C175.569 15.8893 174.726 16.6821 173.669 16.9238C172.073 17.289 170.48 16.3073 170.088 14.7177C169.695 13.1283 170.651 11.5181 172.234 11.0997Z" fill="#1B1919"/>
</svg>
