<svg width="408" height="211" viewBox="0 0 408 211" fill="none" xmlns="http://www.w3.org/2000/svg">
<path d="M41.2818 208.369C42.0593 209.002 42.0853 208.816 42.3045 209.601C41.3568 210.6 40.1961 210.545 38.7799 210.664L38.098 209.957C39.2037 209.883 39.5395 210.007 40.2357 209.414L40.1514 208.667L40.2975 208.51C40.6368 208.49 40.9496 208.437 41.2818 208.369Z" fill="#D5D4DA"/>
<path d="M115.121 20.0026C115.036 13.6603 116.522 6.92516 121.16 2.4418C129.296 -5.42301 129.67 7.83067 129.665 12.3928C133.814 6.13149 140.107 2.9487 147.28 1.13238C149.342 0.610335 153.229 0.792857 153.825 3.98195C153.67 6.82091 149.092 12.1207 147.239 14.4742C152.324 12.1709 160.76 11.4108 166.137 12.933C170.119 14.0604 169.299 16.94 166.867 19.209C181.371 22.1133 189.2 26.0022 200.731 35.3617C205.956 33.0208 211.904 31.2221 217.44 29.6825C242.881 22.6071 267.057 22.9552 291.877 32.1347C326.679 45.0057 345.771 70.8511 354.066 106.38C370.482 110.137 384.589 114.406 395.025 129.581C397.027 132.491 399.781 139.569 399.622 142.983C398.905 144.11 398.016 143.28 397.453 144.237C398.743 146.086 401.058 147.718 402.724 149.26C405.074 151.436 409.187 157.179 407.69 160.45C406.667 164.949 403.603 169.164 399.521 171.635C383.69 181.219 362.536 185.013 344.655 189.216C334.863 191.516 324.334 191.526 314.501 193.77C295.343 197.877 278.536 202.166 258.729 202.411C237.958 202.664 218.099 200.601 197.674 196.711C186.179 194.762 162.665 186.321 152.286 189.522C157.137 200.473 145.136 192.803 141.53 191.284C143.339 193.053 147.83 197.819 146.628 200.538C145.467 201.646 143.797 201.003 142.428 200.571C141.777 200.652 141.546 200.763 140.963 200.886C133.917 202.394 126.444 202.969 119.203 203.035C85.4251 203.335 46.2275 198.39 15.3559 184.18C10.2828 181.845 1.88286 176.011 0.499983 170.377C-0.512307 167.091 0.0675539 163.342 1.74301 160.357C2.60661 158.819 5.4645 155.607 7.32373 155.368L7.79807 154.747C8.40166 150.627 9.64568 145.863 11.8702 142.298C10.2798 142.902 8.33072 143.846 6.70297 143.481C6.38641 143.035 6.24075 142.58 6.40257 142.022C10.8584 126.689 32.0016 118.396 44.914 112.215C44.9968 87.5153 52.8685 58.8337 70.889 41.2244C79.4781 32.8315 91.1908 24.591 102.894 21.796C101.711 19.9403 101.509 19.2236 100.857 17.1301C99.6767 13.3387 101.243 9.9999 105.686 11.458C109.429 12.6864 113.057 16.5866 115.121 20.0026Z" fill="black"/>
<path d="M334.504 169.219C344.132 169.455 393.099 167.427 397.332 157.748C401.207 159.065 403.575 160.531 407.69 160.45C406.667 164.949 403.603 169.164 399.521 171.635C383.69 181.219 362.535 185.013 344.655 189.216C334.863 191.516 324.333 191.526 314.501 193.77C295.343 197.877 278.536 202.166 258.729 202.411C237.958 202.664 218.099 200.601 197.674 196.711C186.179 194.762 162.665 186.321 152.286 189.522C147.089 181.257 141.966 175.88 132.782 172.001C143.232 172.023 153.68 171.671 164.105 170.947C167.433 172.867 170.52 174.87 173.972 176.633C194.632 187.184 218.227 190.711 241.068 192.049C254.99 192.864 293.316 190.499 303.762 180.822C309.616 181.247 333.777 185.483 337.433 184.475C339.735 181.648 332.465 175.768 330.581 174.224C332.485 175.127 334.184 176.269 336.196 175.729C337.839 174.048 335.542 170.897 334.504 169.219Z" fill="#D5D4DA"/>
<path d="M142.428 200.571C141.777 200.652 141.546 200.763 140.963 200.886C133.917 202.394 126.444 202.969 119.203 203.035C85.4251 203.335 46.2275 198.39 15.3559 184.18C10.2828 181.845 1.88286 176.011 0.499983 170.377C-0.512307 167.091 0.0675539 163.342 1.74301 160.357C2.60661 158.819 5.4645 155.607 7.32373 155.368L7.79807 154.747C7.52543 161.842 8.89896 169.382 13.3806 175.048C16.1488 178.548 18.4269 176.581 18.6682 172.726L18.7419 171.556C22.0459 177.449 29.017 181.648 34.673 185.124C35.8781 185.864 37.9401 186.889 39.356 186.535C40.0194 185.828 40.0962 185.619 40.538 184.788C53.7007 191.771 71.6885 194.505 86.4028 195.287C93.535 195.666 100.844 195.966 107.708 193.826C109.465 193.263 111.178 192.569 112.831 191.751C122.253 193.876 133.321 197.398 142.428 200.571Z" fill="#D5D4DA"/>
<path d="M203.952 38.1203C250.707 19.1814 311.406 28.7568 337.93 75.0666C340.927 80.297 343.408 86.0453 345.761 91.5856C350.37 102.631 351.07 116.276 358.151 125.22C357.537 121.765 355.692 114.901 355.402 112.4L354.609 109.74C368.819 112.823 386.992 120.029 393.952 133.681C395.361 135.495 396.065 138.632 396.782 140.856C392.634 138.617 388.898 137.263 384.513 135.584C388.128 138.555 392.468 141.665 394.22 146.123C394.601 147.844 394.442 149.656 394.305 151.396C392.054 150.958 389.789 150.573 387.52 150.242C389.587 152.847 391.332 155.095 393.227 157.821C388.55 157.122 384.788 156.683 380.133 157.37C382.766 158.177 385.172 158.858 387.565 160.228C383.112 160.627 378 161.858 373.398 162.468C359.024 164.376 346.092 165.586 331.594 165.731C326.603 160.165 321.097 157.028 313.961 154.783C312.999 154.481 308.763 153.624 308.453 153.469C303.863 151.173 297.757 145.086 295.568 140.417C292.816 134.548 292.092 129.044 292.973 122.666C293.157 121.323 294.364 119.435 294.836 118.178C294.869 118.07 294.902 117.961 294.934 117.853C294.472 118.326 293.687 119.089 293.301 119.575C289.681 125.848 288.492 130.335 290.519 137.705C291.047 139.619 291.794 141.465 292.741 143.21C287.737 140.585 282.547 138.021 277.279 135.974C272.265 134.025 267.062 132.381 262.003 130.532C258.881 129.444 254.541 128.332 251.328 127.42C247.554 126.537 244.07 125.28 240.432 123.981C240.24 124.054 240.051 124.127 239.859 124.2C238.281 123.377 236.605 119.143 233.841 118.668C236.805 94.493 228.416 70.1486 215.12 50.1913C212.247 46.2037 209.021 43.2701 205.759 39.668L203.952 38.1203Z" fill="#BF9B76"/>
<path d="M294.934 117.853C295.639 116.976 295.914 116.705 296.749 115.94C304.206 131.401 307.758 140.926 325.485 147.13C339.75 152.123 352.201 154.077 367.428 152.943C370.083 152.745 373.027 152.656 375.662 152.268C374.501 152.047 372.923 151.795 371.813 151.497C370.402 149.326 370.134 147.811 369.538 145.315C370.465 146.962 370.81 148.086 372.689 148.537C374.87 149.061 377.866 149.69 380.078 149.616L380.494 149.352C380.668 148.559 380.666 148.371 380.701 147.581C381.355 147.123 382.08 147.854 383.064 147.27C383.309 146.18 381.408 144.736 380.636 143.994C383.746 144.81 390.748 146.514 393.775 146.551C393.904 146.434 394.131 146.254 394.219 146.123C394.601 147.844 394.442 149.657 394.305 151.396C392.053 150.958 389.789 150.573 387.52 150.242C389.587 152.847 391.331 155.095 393.227 157.821C388.55 157.122 384.788 156.683 380.133 157.37C382.766 158.177 385.172 158.859 387.565 160.228C383.112 160.627 378 161.858 373.398 162.468C359.024 164.376 346.091 165.586 331.594 165.731C326.603 160.165 321.097 157.028 313.961 154.783C312.999 154.481 308.763 153.624 308.452 153.469C303.863 151.173 297.756 145.086 295.568 140.417C292.816 134.548 292.092 129.044 292.973 122.666C293.157 121.323 294.364 119.435 294.836 118.178C294.869 118.07 294.901 117.961 294.934 117.853Z" fill="#937463"/>
<path d="M367.832 156.987C369.604 156.626 378.503 157.258 380.477 157.598L380.686 158.094C378.964 158.681 374.552 158.241 372.454 158.237C370.662 158.233 369.046 158.287 367.832 156.987Z" fill="#B69270"/>
<path d="M296.828 125.804C299.208 126.326 300.95 132.034 301.288 134.341C298.966 132.661 297.411 128.524 296.828 125.804Z" fill="#B69270"/>
<path d="M203.952 38.1203C250.707 19.1814 311.406 28.7568 337.93 75.0666C340.927 80.297 343.408 86.0453 345.761 91.5856C345.68 92.1135 345.806 91.9295 345.488 92.1981L345.026 91.8262L344.514 91.8926L344.173 92.7007C341.873 86.8284 335.04 74.7129 331.364 69.5429C316.367 48.4553 294.634 38.3841 269.887 33.6175C250.464 29.8768 234.157 32.5285 215.269 37.1567C213.646 37.5546 206.716 38.9958 205.759 39.668L203.952 38.1203Z" fill="#F9EACF"/>
<path d="M215.12 50.1913C216.316 50.0457 216.831 50.1588 217.824 50.9176C224.392 55.941 232.394 70.9335 235.012 79.0626C237.357 86.3564 242.633 125.391 252.764 124.904L252.039 125.38C252.07 125.702 252.039 125.768 252.163 126.051C251.89 126.505 251.615 126.978 251.328 127.42C247.554 126.537 244.07 125.281 240.432 123.981C240.24 124.054 240.051 124.127 239.859 124.2C238.281 123.377 236.605 119.143 233.841 118.668C236.805 94.4931 228.416 70.1486 215.12 50.1913Z" fill="#937463"/>
<path d="M287.167 135.916C286.904 131.045 287.689 121.253 293.301 119.575C289.681 125.848 288.492 130.335 290.519 137.705C291.047 139.619 291.794 141.465 292.74 143.21C287.737 140.585 282.547 138.021 277.278 135.974C272.265 134.025 267.062 132.381 262.003 130.532C262.253 130.384 262.352 130.316 262.594 130.204C264.096 129.51 284.221 134.897 287.167 135.916Z" fill="#937463"/>
<path d="M354.609 109.74C368.819 112.823 386.992 120.029 393.952 133.681C393.084 134.123 390.617 131.212 389.792 130.453C385.606 126.59 381.441 122.817 376.432 120.025C372.055 117.585 367.294 116.237 362.594 114.591C360.741 113.952 357.214 112.505 355.402 112.4L354.609 109.74Z" fill="#F9EACF"/>
<path d="M252.764 124.904C254.251 124.881 255.172 124.827 256.657 125.092C255.197 125.726 254.18 125.222 252.163 126.051C252.039 125.768 252.07 125.702 252.039 125.38L252.764 124.904Z" fill="#7D6556"/>
<path d="M253.493 59.3186L253.592 58.8124C255.369 57.6393 261.238 60.367 262.962 61.4734C264.172 62.1411 264.583 62.7571 264.427 64.1061C261.849 68.1709 255.064 62.5193 253.493 59.3186Z" fill="#D4B18A"/>
<path d="M253.493 59.3186L253.592 58.8124C255.369 57.6393 261.238 60.367 262.962 61.4734C262.152 61.8814 260.145 60.9582 259.214 60.6441C257.214 59.9716 255.571 59.6041 253.493 59.3186Z" fill="#E4C39E"/>
<path d="M316.165 75.1209C318.575 75.4753 320.012 76.1297 321.842 77.7016C323.745 79.3357 326.325 81.5862 324.111 83.9445C321.62 83.4598 314.973 77.9576 315.349 75.5306L316.165 75.1209Z" fill="#E4C39E"/>
<path d="M333.32 94.6929C337.88 95.0193 339.985 100.611 339.543 104.612C336.524 105.027 333.467 97.3617 333.32 94.6929Z" fill="#E4C39E"/>
<path d="M279.131 89.532C282.62 89.1809 287.719 91.8439 286.907 95.6853C283.17 96.3598 279.717 92.9635 279.131 89.532Z" fill="#E4C39E"/>
<path d="M246.968 35.0913C248.263 35.0731 250.149 35.3657 250.775 36.6135C250.371 38.6601 246.516 38.5129 244.953 38.5538C243.691 38.4566 241.376 38.5932 240.99 37.2073C242.005 35.6401 245.198 35.2854 246.968 35.0913Z" fill="#F9EACF"/>
<path d="M370.884 128.534C372.58 128.681 373.779 129.107 374.771 130.539C374.895 131.486 374.994 131.065 374.504 131.852C373.688 132.4 372.686 132.309 371.674 132.352C370.111 132.198 366.736 132.019 367.173 129.761C368.352 128.59 369.243 128.688 370.884 128.534Z" fill="#E4C39E"/>
<path d="M285.122 84.2916C286.313 83.9077 286.508 83.7042 287.563 82.9641C290.554 84.3664 290.024 84.4724 292.175 86.5939L292.304 87.0675C292.064 88.0565 292.316 87.6607 291.521 88.2971C289.166 88.7891 285.758 86.6669 285.122 84.2916Z" fill="#D4B18A"/>
<path d="M285.122 84.2916C288.79 86.5214 286.821 87.1977 292.175 86.5939L292.304 87.0675C292.064 88.0565 292.316 87.6607 291.521 88.2971C289.166 88.7891 285.758 86.6668 285.122 84.2916Z" fill="#E4C39E"/>
<path d="M299.195 75.0197C301.904 75.3138 306.234 78.0172 305.749 81.1341C302.409 81.4441 299.142 78.4246 299.195 75.0197Z" fill="#E4C39E"/>
<path d="M287.924 106.269C289.843 106.149 294.578 106.571 294.606 109.12C294.018 109.696 293.889 109.663 293.107 109.896C291.218 109.742 287.265 109.202 286.583 107.235C287.028 106.496 286.97 106.704 287.924 106.269Z" fill="#D4B18A"/>
<path d="M252.004 66.7656C254.314 66.6692 260.118 67.9589 260.403 70.7395C257.366 71.8066 253.145 69.8454 252.004 66.7656Z" fill="#E4C39E"/>
<path d="M320.393 107.569C323.066 107.792 326.835 111.536 326.623 114.413C323.465 114.931 320.943 110.114 320.393 107.569Z" fill="#D4B18A"/>
<path d="M235.414 40.8899C236.928 40.7508 241.727 40.7745 242.394 42.3402C241.765 43.0978 241.775 42.913 240.723 43.3295C239.18 43.4327 234.038 43.8952 233.644 42.0486C234.131 41.3324 234.611 41.2327 235.414 40.8899Z" fill="#E4C39E"/>
<path d="M309.641 56.209C312.562 55.8975 317.041 58.12 317.359 61.3285C315.029 60.8908 310.018 58.7905 309.641 56.209Z" fill="#F9EACF"/>
<path d="M271.328 44.1663C273.295 43.9712 278.798 44.7404 278.167 47.5614C276.339 47.7497 270.266 46.9061 271.328 44.1663Z" fill="#E4C39E"/>
<path d="M339.245 141.759C341.54 141.804 346.528 144.185 347.404 146.382C344.711 147.183 340.374 144.082 339.245 141.759Z" fill="#E4C39E"/>
<path d="M365.133 119.351C368.122 119.097 374.181 121.348 375.617 124.196C373.974 124.034 365.906 120.587 365.133 119.351Z" fill="#E4C39E"/>
<path d="M304.095 70.5068C306.791 70.6481 309.695 73.4361 309.821 76.0587C307.104 75.6182 304.522 73.2725 304.095 70.5068Z" fill="#F9EACF"/>
<path d="M242 50.7641C242.512 50.7126 242.654 50.8111 243.191 50.9312C243.944 51.5886 243.752 51.2006 243.951 52.0336C243.277 53.0293 239.862 53.2396 238.587 53.4092C237.673 53.4948 237.463 53.5655 236.567 53.2807L236.413 52.9344C237.342 51.5338 240.389 50.9815 242 50.7641Z" fill="#E4C39E"/>
<path d="M310.535 85.1825C312.252 85.7073 314.365 87.4471 313.532 89.3912L312.883 89.6474C311.492 88.775 309.778 88.0215 309.344 86.5025C309.634 85.5705 309.528 85.8704 310.535 85.1825Z" fill="#E4C39E"/>
<path d="M278.735 55.9866C281.053 55.7354 285.591 56.6962 286.604 59.0333C284.332 59.3257 280.139 57.7343 278.735 55.9866Z" fill="#F9EACF"/>
<path d="M290.282 45.9036C292.703 45.7176 296.308 45.9829 297.259 48.5588C294.967 48.912 291.526 48.0239 290.282 45.9036Z" fill="#F9EACF"/>
<path d="M245.875 99.2071C248.2 98.8767 256.073 99.7264 257.697 101.616C256.346 101.807 246.849 99.9463 245.875 99.2071Z" fill="#E4C39E"/>
<path d="M277.488 40.3544C279.142 40.5783 282.416 41.1696 283.145 42.6678C281.668 42.7428 277.776 42.0021 277.488 40.3544Z" fill="#F9EACF"/>
<path d="M345.523 124.186C346.291 124.264 346.233 124.262 346.819 124.776C347.291 125.747 347.121 126.66 347.073 127.774C345.438 126.698 345.21 126.112 345.523 124.186Z" fill="#E4C39E"/>
<path d="M303.065 59.4766C304.939 59.3853 306.259 59.8265 306.824 61.6784C305.297 61.8534 303.934 60.6139 303.065 59.4766Z" fill="#E4C39E"/>
<path d="M63.4154 101.453C66.4233 87.7879 72.5026 75.2504 84.5791 67.3975C99.0119 58.012 118.927 59.0031 132.822 68.8957C134.794 70.298 136.743 71.9432 138.726 73.2746C140.359 72.0997 142.023 70.8981 143.593 69.6379C152.705 62.3224 165.153 59.6556 176.655 61.554C186.84 63.2592 195.939 68.9147 201.978 77.2917C207.509 85.1285 209.92 92.5697 212.255 101.567C213.451 104.391 212.876 111.203 212.388 114.315C211.068 122.753 207.509 131.436 201.556 137.683C200.559 138.73 197.494 141.48 196.934 142.505C201.619 144.886 206.401 147.069 211.268 149.047C197.075 158.514 187.157 161.831 170.46 164.865C159.126 166.925 153.975 167.607 142.105 167.596C137.811 167.572 133.518 167.436 129.23 167.19C126.897 167.055 123.725 166.731 121.501 166.741C116.476 162.471 113.113 160.748 107.242 157.881C96.9818 152.991 85.9244 149.737 75.3428 144.395L78.2297 142.373C77.971 142 78.1015 142.125 77.7814 141.878C67.2982 133.782 61.8637 119.277 62.9202 106.244C63.0446 104.71 62.9068 102.888 63.4154 101.453Z" fill="#F9EACF"/>
<path d="M196.737 142.394C184.306 135.532 165.995 132.456 158.916 116.999C156.358 111.412 156.186 104.156 158.49 98.4142C160.306 93.7635 163.947 90.0589 168.566 88.1628C181.374 82.8015 194.98 91.2007 204.808 98.5132C206.315 99.633 210.619 102.633 212.144 103.265L212.393 102.985L212.255 101.567C213.451 104.391 212.876 111.203 212.388 114.316C211.068 122.753 207.509 131.436 201.556 137.683C200.559 138.73 197.494 141.48 196.934 142.505L196.737 142.394Z" fill="#605C58"/>
<path d="M190.378 119.941C194.967 119.546 205.181 121.903 201.321 128.852C200.178 130.908 196.005 131.443 193.763 131.719C190.792 131.503 178.785 130.273 182.169 123.691C183.277 121.535 187.939 120.36 190.378 119.941Z" fill="#937463"/>
<path d="M169.471 106.815C171.064 106.984 173.262 108.852 174.643 110.007C178.703 113.403 186.784 113.424 191.311 110.971C192.935 110.091 194.23 108.093 195.243 107.953C197.404 108.994 196.116 111.322 195.26 112.92C184.885 124.569 166.812 114.648 169.471 106.815Z" fill="black"/>
<path d="M63.4154 101.453L63.7022 101.957C66.0845 100.469 68.75 98.3185 71.0589 96.6511C80.1031 90.12 89.7895 85.1799 101.248 87.6357C113.055 90.1662 117.399 102.467 114.817 113.262C112.819 121.642 106.71 127.33 99.5438 131.675C92.5237 135.873 85.2865 138.039 78.2297 142.373C77.971 142 78.1015 142.125 77.7814 141.878C67.2982 133.782 61.8637 119.277 62.9202 106.244C63.0446 104.71 62.9068 102.888 63.4154 101.453Z" fill="#605C58"/>
<path d="M79.3205 119.405C81.935 119.112 86.5302 119.303 88.4687 120.915C96.0871 127.247 87.1906 129.979 82.5772 130.913C79.764 131.313 77.5895 131.353 74.9109 130.153C72.4437 129.046 69.9875 126.413 71.6528 123.613C73.1665 121.069 76.5891 120.051 79.3205 119.405Z" fill="#937463"/>
<path d="M101.79 106.361C102.549 106.345 102.495 106.359 103.14 106.777C103.352 107.134 103.55 107.48 103.503 107.908C102.777 113.968 96.3472 117.754 90.6276 117.813C85.7043 117.862 81.7874 116.018 78.3024 112.67C77.1573 111.278 76.4028 108.745 77.4338 107.199L77.9886 107.139C79.1966 107.636 79.9001 108.715 80.8637 109.567C84.5592 112.832 90.8505 113.434 95.3192 111.541C98.039 110.39 99.8253 108.435 101.79 106.361Z" fill="black"/>
<path d="M196.737 142.394L196.934 142.505C201.619 144.886 206.401 147.069 211.268 149.047C197.075 158.514 187.157 161.831 170.46 164.865C159.126 166.925 153.975 167.607 142.105 167.596C137.811 167.572 133.518 167.436 129.23 167.19C126.897 167.055 123.725 166.731 121.501 166.741C116.476 162.471 113.113 160.748 107.242 157.881C107.579 157.714 108.312 157.343 108.65 157.379C113.147 157.862 117.485 159.106 122.021 159.413C144.061 160.906 166.944 160.392 187.026 150.095C189.523 148.815 195.866 145.17 196.737 142.394Z" fill="#D5D4DA"/>
<path d="M132.993 114.121C139.059 113.687 154.376 114.004 149.879 125.405C148.19 129.686 141.277 131.897 137.007 133.184C141.668 138.506 148.007 138.553 154.002 135.019C155.192 134.318 156.402 132.508 157.608 132.218L158.067 132.504C158.536 133.788 158.417 135.319 157.459 136.342C152.826 141.286 144.142 141.603 138.321 139.065C137.157 138.459 136.87 138.169 135.881 137.284C135.073 137.865 134.225 138.388 133.344 138.85C127.913 141.651 116.877 140.719 113.152 134.817C112.657 134.032 112.914 133.069 113.238 132.252L113.661 132.105C115.286 132.737 117.244 134.663 118.691 135.559C120.903 136.929 126.124 137.63 128.619 136.982C131.581 136.212 132.402 135.291 133.884 132.986C131.308 131.651 126.88 130.409 124.844 128.534C115.53 119.952 124.763 114.894 132.993 114.121Z" fill="black"/>
<path d="M133.117 117.683C135.153 117.448 141.47 117.078 142.691 118.91L142.357 119.216C140.25 119.038 134.415 118.909 132.781 118.343L132.676 117.974L133.117 117.683Z" fill="#F9FAF9"/>
<path d="M131.349 18.1368C133.454 9.17467 142.069 6.55811 150.015 4.65319C148.678 5.9472 147.925 6.76512 146.732 8.19419C142.07 16.0075 140.679 15.935 139.042 25.5311C139.353 25.0815 140.312 23.6004 140.656 23.3399C146.126 16.0325 156.22 16.0055 164.523 15.9401C163.388 16.7583 162.219 17.5196 161.053 18.2936C157.541 20.8001 155.211 22.3521 152.085 25.3269C156.096 23.7282 162.088 22.0825 166.402 23.14C183.308 25.1317 200.589 38.2456 210.768 51.4127C211.21 51.9844 211.543 52.3293 211.876 52.9786C217.985 60.2691 223.291 72.6644 226.144 81.7286C229.105 92.6664 230.925 104.253 229.857 115.6L229.529 116.609L229.04 116.684C225.945 114.783 218.977 109.129 216.675 106.595C213.822 94.1512 211.144 83.8771 202.659 73.6103C195.106 64.4679 185.127 59.3873 173.328 58.3237C159.727 57.0976 149.216 61.1183 138.877 69.7407C133.334 64.4384 122.681 59.8371 115.174 58.6769C84.2484 53.8979 64.1304 76.7103 59.4153 105.181L59.2408 106.771C58.8521 107.449 58.9369 108.317 58.9142 109.136C57.3246 110.238 50.0386 117.462 49.7084 117.562C49.045 114.415 48.9698 108.109 49.4161 104.815C48.8284 97.538 52.8086 79.6651 55.8569 72.8863C58.1056 66.4541 61.1849 60.3433 65.017 54.709C72.3908 43.8932 81.6642 35.9574 93.12 29.8531C96.8483 27.8667 100.027 26.1869 104.207 25.4011C106.219 24.9901 107.756 25.4069 109.785 25.3213L110.024 25.0191C106.841 22.1029 105.65 19.4291 104.276 15.3782C109.075 18.7063 114.105 24.7097 118.643 29.1138C118.82 29.239 119.067 29.2884 119.294 29.3604C119.708 28.1239 118.252 21.5132 118.752 18.1537C119.054 14.5085 119.868 11.7884 121.688 8.6458C122.793 6.87896 123.574 6.09589 125.005 4.55322C125.779 9.16507 126.756 15.4594 128.366 19.7037C128.92 20.8417 129.273 21.6791 130.274 22.4432L130.645 22.366C131.132 21.3625 131.169 19.4218 131.349 18.1368Z" fill="#BF9B76"/>
<path d="M55.8568 72.8863C58.1056 66.4541 61.1848 60.3432 65.0169 54.709C72.3907 43.8932 81.6641 35.9574 93.1199 29.8531C96.8482 27.8667 100.027 26.1869 104.207 25.4011L108.512 25.5255C93.1927 32.2945 84.1151 36.4136 72.3513 49.1439C70.2013 51.4606 68.2499 53.9537 66.5174 56.597C63.2491 61.6004 60.5123 67.0547 57.5691 72.2504C57.1465 72.9966 56.7919 72.9401 56.2032 73.3407C55.8932 73.0812 56.004 73.2362 55.8568 72.8863Z" fill="#F1E3D5"/>
<path d="M166.402 23.14C183.308 25.1318 200.589 38.2456 210.768 51.4127C211.209 51.9845 211.543 52.3293 211.876 52.9786C211.977 53.6826 212.154 53.749 212.151 54.5631L212.098 54.1017L211.74 54.4596C210.669 53.5577 210.371 53.4355 209.137 52.8819L208.794 52.7302C207.13 50.9823 205.636 48.7959 203.899 46.9917C197.661 40.5047 190.022 34.7679 181.845 31.0111C178.824 29.6499 175.731 28.4541 172.579 27.4292C170.684 26.8221 164.582 25.2686 163.603 23.8973L163.769 23.506C164.673 23.0289 165.334 23.1461 166.402 23.14Z" fill="#F9EACF"/>
<path d="M208.794 52.7302L209.137 52.8819C210.371 53.4355 210.669 53.5577 211.74 54.4596L212.098 54.1017L212.151 54.5631C212.154 53.749 211.977 53.6826 211.876 52.9786C217.985 60.2691 223.291 72.6644 226.144 81.7286L225.803 82.4433L225.364 82.5965C224.455 81.949 220.096 71.6941 219.227 69.8656C216.271 63.6445 212.686 58.3712 208.794 52.7302Z" fill="#E0CDB2"/>
<path d="M49.2719 111.09C50.8999 109.363 57.0544 105.524 59.4153 105.181L59.2408 106.771C58.8521 107.449 58.9369 108.317 58.9142 109.136C57.3246 110.238 50.0386 117.462 49.7084 117.562C49.045 114.415 48.9698 108.109 49.4161 104.815C49.5968 107.005 49.4797 108.9 49.2719 111.09Z" fill="#B69270"/>
<path d="M140.656 23.3399C146.126 16.0325 156.22 16.0054 164.523 15.9401C163.388 16.7582 162.218 17.5196 161.053 18.2936C157.259 16.3245 144.875 20.923 141.335 23.4376C141.275 23.4802 140.757 23.3765 140.656 23.3399Z" fill="#EEE3DA"/>
<path d="M104.276 15.3781C109.075 18.7063 114.105 24.7096 118.643 29.1137C117.169 29.22 111.66 25.9315 110.024 25.0191C106.841 22.1029 105.65 19.4291 104.276 15.3781Z" fill="#F3F0EB"/>
<path d="M121.688 8.6458C122.793 6.87896 123.573 6.09589 125.005 4.55322C125.779 9.16507 126.756 15.4594 128.366 19.7037L128.031 20.1695C125.885 19.4452 123.396 12.152 122.635 9.92012L121.688 8.6458Z" fill="#F9EACF"/>
<path d="M131.349 18.1368C133.453 9.17468 142.069 6.55812 150.015 4.6532C148.678 5.94721 147.924 6.76513 146.732 8.1942C143.304 7.23063 135.104 12.1078 133.466 15.3183C132.973 16.2847 132.34 18.8732 131.701 19.3594C131.383 18.8235 131.429 18.7692 131.349 18.1368Z" fill="#F8F3F1"/>
<path d="M118.752 18.1537C119.054 14.5085 119.868 11.7884 121.688 8.64578L122.635 9.92011L122.502 10.2092C121.773 11.8182 119.763 18.1399 119.178 18.6836C118.798 18.4372 118.949 18.6061 118.752 18.1537Z" fill="#E4C39E"/>
<path d="M98.759 42.1592C99.8811 42.0827 99.9917 42.0385 101.042 42.3538C101.623 42.9319 101.479 42.5924 101.505 43.3992C100.576 45.2889 96.6885 48.0585 94.8648 49.427C94.3001 49.8008 93.9525 49.7173 93.3976 49.5648C92.1516 48.3851 92.481 46.871 93.2747 45.5131C94.4642 43.4782 96.6127 42.764 98.759 42.1592Z" fill="#D4B18A"/>
<path d="M140.619 44.4783L141.163 44.7252C142.63 47.1744 139.669 51.4793 138.079 53.3193C134.948 50.6808 138.468 46.5951 140.619 44.4783Z" fill="#E4C39E"/>
<path d="M126.873 35.6747L127.388 35.8029C128.379 37.6208 123.92 44.3963 122.315 45.7196L121.65 45.6067L121.391 45.2223C121.455 43.363 125.242 37.3034 126.873 35.6747Z" fill="#E4C39E"/>
<path d="M173.715 45.4078C175.752 45.2733 177.088 45.9943 177.946 47.8071C177.914 48.8057 178.08 48.3869 177.5 49.1319C176.323 49.5736 176.627 49.4197 175.221 49.2235C173.673 48.892 171.64 48.7583 170.892 47.2623L171.181 46.6317C172.135 45.8418 172.501 45.8075 173.715 45.4078Z" fill="#D4B18A"/>
<path d="M174.444 33.4747C176.645 33.4101 181.101 35.6704 181.842 37.846C179.144 38.9027 175.368 36.0521 174.444 33.4747Z" fill="#E4C39E"/>
<path d="M71.6327 61.2328L71.8101 61.3982C71.8581 62.2462 68.5461 68.1326 67.9076 69.2236L67.51 68.7442C66.7537 65.2353 68.9765 63.0484 71.6327 61.2328Z" fill="#E4C39E"/>
<path d="M161.447 27.9679C163.854 27.9583 173.859 29.6312 175.04 31.5311C172.596 31.1504 169.655 30.0384 166.958 29.7504C165.778 29.6241 163.062 29.1937 161.906 28.7898C161.505 28.6497 161.591 28.4955 161.447 27.9679Z" fill="#E4C39E"/>
<path d="M215.93 99.1127C218.591 99.2829 227.166 105.716 228.406 108.294C227.182 107.665 223.582 103.984 221.608 102.794C220.588 102.179 216.43 99.713 215.93 99.1127Z" fill="#7D6556"/>
<path d="M195.927 51.1266C197.626 51.6103 198.724 52.2222 199.055 54.0004C197.729 53.6071 196.162 52.5635 195.927 51.1266Z" fill="#E4C39E"/>
<path d="M175.652 39.8047C177.579 39.559 178.178 40.2752 179.268 41.6503C177.733 41.5763 176.708 40.8412 175.652 39.8047Z" fill="#F9EACF"/>
<path d="M233.841 118.668C236.605 119.143 238.281 123.377 239.859 124.2C247.629 131.769 259.464 133.142 269.453 136.926C271.084 137.545 275.254 138.801 276.508 139.684C284.19 142.449 299.057 150.301 304.158 156.367C307.059 159.256 307.71 163.043 308.427 166.898C305.953 164.233 304.035 162.557 300.793 160.797L300.632 161.294C301.581 162.315 302.045 163.307 302.704 164.52C304.275 167.249 304.8 168.292 307.034 170.483C304.391 170.294 303.401 170.63 300.803 170.884C300.609 171.123 300.69 170.963 300.685 171.411C301.611 172.389 302.876 173.171 303.999 173.948C299.66 180.113 296.552 181.438 289.28 183.185C252.39 192.061 201.821 188.994 169.096 169.048C181.519 167.43 194.288 164.217 205.28 158.018C208.347 156.287 210.846 154.358 213.704 152.369C223.925 142.069 231.268 133.814 233.841 118.668Z" fill="#BF9B76"/>
<path d="M169.096 169.048C181.519 167.43 194.288 164.217 205.28 158.018C208.347 156.287 210.846 154.358 213.704 152.369C213.353 155.682 207.501 161.306 205.307 164.097C203.179 166.801 200.763 169.916 198.557 172.552C218.586 179.169 245.307 179.214 266.04 177.063C270.195 176.631 274.991 175.614 279.22 174.987C283.221 174.393 287.677 174.119 291.554 173.394C294.01 173.474 298.229 172.402 300.099 170.765L300.803 170.884C300.609 171.123 300.69 170.963 300.685 171.411C301.611 172.389 302.876 173.171 303.999 173.948C299.66 180.113 296.552 181.438 289.28 183.185C252.39 192.061 201.821 188.994 169.096 169.048Z" fill="#937463"/>
<path d="M295.54 174.915L296.015 175.214L296.068 175.746C294.621 177.308 290.575 177.455 288.575 177.589C288.315 177.563 288.472 177.6 288.136 177.396C288.742 176.718 294.412 175.216 295.54 174.915Z" fill="#B69270"/>
<path d="M276.509 139.684C284.19 142.449 299.057 150.3 304.158 156.367L304.012 156.767C303.219 156.652 299.392 153.461 298.254 152.704C292.635 148.97 287.333 145.293 280.873 143.093C280.015 142.801 277.321 141.851 276.817 141.363L277.188 141.265C278.457 141.916 281.451 143.157 282.792 143.454L282.688 143.036C281.562 142.164 278.096 140.862 276.511 140.027L276.509 139.684Z" fill="#E4C39E"/>
<path d="M302.704 164.52C304.274 167.249 304.8 168.292 307.034 170.483C304.391 170.294 303.401 170.63 300.803 170.884L300.099 170.765L300.329 169.558C301.182 167.714 301.735 166.371 302.704 164.52Z" fill="#937463"/>
<path d="M291.554 173.394C292.056 173.172 292.087 173.145 292.382 172.655C293.664 170.539 296.227 170.717 298.335 171.113C299.001 171.237 299.902 170.037 300.329 169.558L300.099 170.765C298.229 172.402 294.01 173.474 291.554 173.394Z" fill="#B69270"/>
<path d="M296.477 158.301C298.067 159.135 299.324 159.761 300.793 160.797L300.632 161.294C299.259 160.508 297.716 159.282 296.477 158.301Z" fill="#7D6556"/>
<path d="M237.741 168.085C239.665 168.194 245.63 169.569 246.221 171.555C245.865 172.261 245.938 172.048 245.006 172.458C242.997 172.397 236.383 171.89 236.143 169.384C236.58 168.576 236.921 168.504 237.741 168.085Z" fill="#D4B18A"/>
<path d="M218.01 169.96C220.903 169.944 223.786 170.625 224.296 173.865C221.302 174.074 218.992 172.824 218.01 169.96Z" fill="#E4C39E"/>
<path d="M259.645 154.788C261.079 154.742 267.186 154.329 267.39 156.284L267.017 156.658C265.126 156.892 260.491 157.226 259.418 155.429L259.645 154.788Z" fill="#E4C39E"/>
<path d="M259.994 163.706C261.243 163.837 264.538 165.068 265.681 165.816C266.648 166.448 266.461 166.352 266.701 167.33C264.053 167.928 261.201 165.946 259.994 163.706Z" fill="#E4C39E"/>
<path d="M233.303 153.934C235.255 154.021 238.771 154.6 239.425 156.679C237.413 157.389 233.955 156.079 233.303 153.934Z" fill="#E4C39E"/>
<path d="M288.209 161.242C289.719 161.205 291.498 161.359 292.634 162.447C292.799 163.19 292.857 162.853 292.468 163.493C291.16 163.21 288.59 162.887 287.899 161.894L288.209 161.242Z" fill="#E4C39E"/>
<path d="M278.473 167.612C280.482 167.384 282.183 167.112 282.539 169.411C280.994 169.243 278.818 169.34 278.473 167.612Z" fill="#E4C39E"/>
<path d="M273.401 145.602C274.731 145.615 277.48 146.432 278.253 147.557C276.711 147.67 274.143 147.087 273.401 145.602Z" fill="#E4C39E"/>
<path d="M224.687 173.905C226.275 173.759 229.61 174.576 230.63 175.84C229.32 175.9 225.886 174.569 224.687 173.905Z" fill="#E4C39E"/>
<path d="M14.2144 134.97C16.4957 132.502 19.0133 130.263 21.7311 128.286C23.8006 126.783 25.9562 125.402 28.1875 124.152C30.0442 123.103 44.1077 115.947 45.245 116.118L45.7226 116.946C45.4038 119.602 48.6769 128.401 49.8271 131.384C47.5808 130.909 45.248 130.451 43.0197 129.928C49.6526 137.087 72.9015 148.119 82.3728 151.911C86.4974 153.563 93.0455 155.595 96.9389 157.464C104.271 160.449 114.178 164.009 118.532 171.058C120.384 173.42 120.388 175.893 120.404 178.805C117.76 174.332 115.761 173.478 110.743 172.066C113.765 175.826 114.839 177.052 115.887 181.837C114.484 182.024 110.528 182.711 109.208 183.183C109.863 184.442 110.435 185.631 111.282 186.775C108.251 186.697 106.714 186.348 103.772 185.929C104.808 186.576 108.531 188.754 108.982 189.734C108.454 190.238 107.789 190.433 107.102 190.637C95.6962 194.045 65.7288 189.623 53.9418 186.26C49.0531 184.904 44.341 182.978 39.9036 180.519C39.326 179.091 38.86 177.787 38.3551 176.332C36.562 173.712 33.9823 170.457 32.0522 167.829C33.592 172.378 34.672 177.232 36.7786 181.524C36.426 181.325 36.074 181.125 35.7237 180.921C23.8993 174.071 19.4031 168.385 15.9595 155.525C14.0935 162.256 14.4002 164.836 15.1371 171.821C9.18424 158.426 11.5314 145.828 21.7902 135.451C19.5235 135.97 17.5234 136.616 15.3125 137.31C15.6021 136.535 15.4561 136.217 15.2923 135.405L14.2944 136.258L14.0498 136.147L14.2144 134.97Z" fill="#BF9B76"/>
<path d="M38.3551 176.332C40.6425 177.156 42.6042 178.46 44.7898 179.497C48.5855 181.294 52.5711 182.754 56.6258 183.854C59.4388 184.619 61.8927 184.763 64.7829 184.695C62.8616 182.398 60.4786 179.396 58.478 177.262C67.892 182.019 80.1839 184.258 90.6665 184.657C92.864 184.74 99.8205 184.468 101.282 184.707C102.018 184.914 102.667 184.932 103.224 185.412L102.99 185.467C103.451 185.934 103.184 185.793 103.772 185.929C104.808 186.576 108.531 188.754 108.982 189.734C108.454 190.238 107.789 190.433 107.102 190.637C95.6962 194.045 65.7288 189.623 53.9418 186.26C49.0531 184.904 44.341 182.978 39.9036 180.519C39.326 179.091 38.86 177.787 38.3551 176.332Z" fill="#937463"/>
<path d="M14.2144 134.97C16.4957 132.502 19.0133 130.263 21.7311 128.286C23.8006 126.783 25.9562 125.402 28.1875 124.152C30.0442 123.103 44.1078 115.947 45.245 116.118L45.7226 116.946C45.5913 117.219 45.4601 117.491 45.3288 117.763C40.225 121.13 34.1866 122.979 28.7611 125.814C25.6364 127.435 22.6429 129.298 19.8077 131.385C18.3984 132.416 16.2882 133.992 15.2923 135.405L14.2944 136.258L14.0498 136.147L14.2144 134.97Z" fill="#EDDDD2"/>
<path d="M96.9388 157.464C104.271 160.449 114.178 164.009 118.532 171.059L117.965 171.173C114.945 169.09 111.796 167.2 108.536 165.517C106.508 164.448 96.3721 160.112 96.3184 157.945L96.9388 157.464Z" fill="#EBD3B7"/>
<path d="M101.282 184.708C102.721 184.655 108.116 183.842 109.208 183.183C109.863 184.442 110.435 185.631 111.282 186.775C108.251 186.697 106.714 186.348 103.772 185.929C103.184 185.793 103.451 185.934 102.99 185.467L103.224 185.412C102.667 184.932 102.017 184.915 101.282 184.708Z" fill="#7D6556"/>
<path d="M50.9249 157.458C53.9602 157.361 58.0256 160.536 56.2085 163.27C53.1918 163.347 49.0508 160.095 50.9249 157.458Z" fill="#E4C39E"/>
<path d="M38.5214 162.57C40.7759 162.688 42.4173 164.272 43.1428 166.427C43.4829 167.436 43.1272 167.769 42.6256 168.598C39.1538 168.479 37.3776 165.905 38.5214 162.57Z" fill="#E4C39E"/>
<path d="M26.5834 137.674L27.4859 137.73C29.7026 139.24 26.2653 142.908 24.9794 144.176C24.21 144.1 24.01 143.877 23.5057 143.378C22.6077 141.111 24.962 138.91 26.5834 137.674Z" fill="#E4C39E"/>
<path d="M61.3146 172.563C63.191 172.72 64.9576 173.512 66.3217 174.81C67.0811 175.543 67.7468 176.389 67.7809 177.469C64.4451 177.727 61.564 176.153 61.3146 172.563Z" fill="#D4B18A"/>
<path d="M86.7195 178.394C89.2373 178.222 93.2703 180.181 94.4722 182.461C92.6774 182.135 87.957 179.883 86.7195 178.394Z" fill="#E4C39E"/>
<path d="M63.2017 148.874C65.74 148.834 68.9657 149.673 69.594 152.477C67.7638 152.512 64.4745 150.136 63.2017 148.874Z" fill="#E4C39E"/>
<path d="M103.611 178.934C106.425 179.752 110.583 180.742 113.141 181.6C110.115 181.979 106.118 180.593 103.611 178.934Z" fill="black"/>
<path d="M216.675 106.595C218.977 109.129 225.945 114.783 229.039 116.684L229.529 116.609L229.857 115.6C230.034 117.885 228.666 122.697 227.924 124.942C224.15 135.562 220.227 139.872 212.684 147.773C210.606 146.258 205.461 143.851 202.874 142.965C207.607 138.526 210.712 132.142 213.128 126.212C215.988 118.904 216.528 114.243 216.675 106.595Z" fill="#383B43"/>
<path d="M216.675 106.595C218.977 109.129 225.945 114.783 229.039 116.684L229.529 116.609L229.857 115.6C230.034 117.885 228.666 122.697 227.924 124.942C225.291 123.901 222.577 122.867 219.989 121.736C220.515 125.972 219.944 128.404 217.904 132.067C217.326 131.397 213.481 126.894 213.128 126.212C215.988 118.904 216.528 114.243 216.675 106.595Z" fill="#605C58"/>
<path d="M58.9142 109.136C58.9369 108.317 58.8521 107.449 59.2408 106.771C59.0755 114.698 59.4115 119.892 62.2608 127.391C65.4016 134.135 68.1856 139.351 74.0147 144.272C70.1846 142.421 66.3713 140.284 62.6031 138.431C57.3397 135.842 54.6744 133.317 52.8414 127.454C51.1831 123.844 50.4157 121.446 49.7084 117.562C50.0386 117.462 57.3245 110.238 58.9142 109.136Z" fill="#605C58"/>
<path d="M52.8414 127.454L53.3471 127.292C54.1864 125.431 54.0042 123.821 54.9511 121.803C55.715 125.921 56.0845 127.879 58.9298 131.152C59.8752 130.24 61.8907 128.526 62.2608 127.391C65.4016 134.135 68.1856 139.351 74.0147 144.272C70.1847 142.421 66.3713 140.284 62.6031 138.431C57.3397 135.842 54.6744 133.317 52.8414 127.454Z" fill="#383B43"/>
<path d="M123.694 173.226C132.928 176.814 143.732 181.676 149.122 190.526L148.959 190.968C145.704 189.034 140.883 187.096 137.319 185.576C132.199 183.387 127.916 181.363 123.009 178.778C123.771 176.461 123.804 175.563 123.694 173.226Z" fill="#E5E4E7"/>
<path d="M311.373 169.443C319.063 171.342 327.716 174.846 332.614 181.378L328.746 180.545C321.466 179.159 314.117 178.023 306.804 176.784C308.97 174.35 310.374 172.522 311.373 169.443Z" fill="#D5D4DA"/>
<path d="M119.01 182.908C119.347 182.951 119.683 183.001 120.018 183.054C128.504 184.425 136.116 189.065 141.227 195.976C139.775 195.366 138.213 194.798 136.734 194.237C130.696 192.147 118.439 188.532 112.33 188.158C115.697 186.588 117.014 186.22 119.01 182.908Z" fill="#D5D4DA"/>
<path d="M309.833 157.975C310.687 158.176 311.535 158.399 312.378 158.643C318.3 160.415 328.552 165.926 331.521 171.34C324.672 169.112 318.732 166.643 311.565 164.552C311.103 161.982 310.681 160.429 309.833 157.975Z" fill="#D5D4DA"/>
<path d="M398.364 149.924C400.674 151 403.474 155.118 404.706 157.308C404.062 157.206 399.311 153.503 398.468 152.837C398.077 151.927 398.281 150.935 398.364 149.924Z" fill="#F9FAF9"/>
<path d="M10.4487 139.574C11.7157 137.947 12.8654 136.527 14.2144 134.97L14.0498 136.147L14.2944 136.258L15.2923 135.405C15.4562 136.217 15.6021 136.535 15.3125 137.31C13.4901 137.966 12.1739 138.681 10.4487 139.574Z" fill="#C9BEBE"/>
</svg>
